<?xml version="1.0" encoding="UTF-8" standalone="no"?>
<!-- Created with Inkscape (http://www.inkscape.org/) -->

<svg
   width="512"
   height="512"
   viewBox="0 0 135.46667 135.46666"
   version="1.1"
   id="svg5"
   inkscape:version="1.1.1 (3bf5ae0d25, 2021-09-20)"
   sodipodi:docname="ParkButton.svg"
   inkscape:export-filename="D:\Git-Workspace\SPGames\ThemeparkQuiz\Assets\Sprites\ParkButton.png"
   inkscape:export-xdpi="96.000008"
   inkscape:export-ydpi="96.000008"
   xmlns:inkscape="http://www.inkscape.org/namespaces/inkscape"
   xmlns:sodipodi="http://sodipodi.sourceforge.net/DTD/sodipodi-0.dtd"
   xmlns="http://www.w3.org/2000/svg"
   xmlns:svg="http://www.w3.org/2000/svg">
  <sodipodi:namedview
     id="namedview7"
     pagecolor="#505050"
     bordercolor="#ffffff"
     borderopacity="1"
     inkscape:pageshadow="0"
     inkscape:pageopacity="0"
     inkscape:pagecheckerboard="1"
     inkscape:document-units="mm"
     showgrid="false"
     units="px"
     inkscape:snap-page="true"
     inkscape:zoom="1.0708779"
     inkscape:cx="130.26695"
     inkscape:cy="291.81665"
     inkscape:window-width="1920"
     inkscape:window-height="1009"
     inkscape:window-x="1912"
     inkscape:window-y="-8"
     inkscape:window-maximized="1"
     inkscape:current-layer="layer1" />
  <defs
     id="defs2" />
  <g
     inkscape:label="Ebene 1"
     inkscape:groupmode="layer"
     id="layer1">
    <path
       id="path984"
       style="fill:#b3b3b3;fill-opacity:1;stroke-width:10.1352;stroke-linejoin:round"
       d="M 10.204915,4.2333333 H 125.49864 c 5.57092,0 10.0558,4.5560391 10.0558,10.2153337 V 125.00929 c 0,5.6593 -4.48488,10.21533 -10.0558,10.21533 H 10.204915 c -5.5709144,0 -10.05580231,-4.55603 -10.05580231,-10.21533 V 14.448667 c 0,-5.6592946 4.48488791,-10.2153337 10.05580231,-10.2153337 z" />
    <path
       id="rect846"
       style="fill:#ffffff;fill-opacity:1;stroke-width:10.1829;stroke-linejoin:round"
       d="M 10.204915,0 H 125.49864 c 5.57092,0 10.0558,4.5990063 10.0558,10.311673 V 121.91498 c 0,5.71267 -4.48488,10.31167 -10.0558,10.31167 H 10.204915 c -5.5709144,0 -10.05580231,-4.599 -10.05580231,-10.31167 V 10.311673 C 0.14911269,4.5990063 4.6340006,0 10.204915,0 Z" />
  </g>
</svg>
